<svg xmlns="http://www.w3.org/2000/svg" viewBox="0 0 45 45"><defs><style>.a{fill:currentColor;}</style></defs><path class="a" d="M22.5,45A22.506,22.506,0,0,1,13.742,1.768,22.506,22.506,0,0,1,31.258,43.232,22.356,22.356,0,0,1,22.5,45ZM20.625,18.75V30h3.749V24.636c0-1.664.975-2.534,1.939-2.534.9,0,1.815.784,1.815,2.534V30h3.747V23.7a5.565,5.565,0,0,0-1.214-3.813,3.581,3.581,0,0,0-2.685-1.158,4.16,4.16,0,0,0-3.6,2.069V18.75ZM15,18.75V30h3.748V18.75Zm1.875-5.829A2.079,2.079,0,1,0,18.938,15,2.074,2.074,0,0,0,16.875,12.92Z"/></svg>