<svg xmlns="http://www.w3.org/2000/svg" viewBox="0 0 45 45">
  <defs>
    <style>
      .cls-1 {
        fill: #1a3fd8;
      }
    </style>
  </defs>
  <path id="Fill_1" data-name="Fill 1" class="cls-1" d="M22.5,45A22.492,22.492,0,0,1,6.591,6.591,22.5,22.5,0,1,1,31.258,43.231,22.352,22.352,0,0,1,22.5,45Zm0-35.625c-3.536,0-3.966.014-5.412.08-4.775.218-7.415,2.857-7.635,7.633-.063,1.419-.078,1.888-.078,5.412s.015,3.995.078,5.411c.22,4.776,2.86,7.416,7.635,7.636,1.461.063,1.939.078,5.412.078s3.952-.015,5.413-.078c4.777-.221,7.417-2.861,7.633-7.636.063-1.416.078-1.885.078-5.411s-.015-3.993-.078-5.412a8.035,8.035,0,0,0-2.108-5.519,8.054,8.054,0,0,0-5.525-2.114C26.531,9.391,26.069,9.375,22.5,9.375Zm0,23.887c-3.479,0-3.9-.013-5.3-.076a5.717,5.717,0,0,1-3.967-1.431,5.744,5.744,0,0,1-1.414-3.95c-.063-1.409-.076-1.828-.076-5.3s.013-3.9.076-5.3a5.74,5.74,0,0,1,1.416-3.954A5.723,5.723,0,0,1,17.2,11.816c1.374-.062,1.788-.075,5.3-.075,3.459,0,3.89.009,5.3.075a5.72,5.72,0,0,1,3.963,1.428A5.743,5.743,0,0,1,33.186,17.2c.062,1.374.075,1.788.075,5.3s-.013,3.93-.075,5.3a5.747,5.747,0,0,1-1.417,3.953A5.713,5.713,0,0,1,27.8,33.186C26.437,33.249,26.025,33.262,22.5,33.262Zm0-17.5A6.74,6.74,0,1,0,29.241,22.5,6.748,6.748,0,0,0,22.5,15.761Zm7.007-1.841A1.575,1.575,0,1,0,31.081,15.5,1.577,1.577,0,0,0,29.507,13.92ZM22.5,26.874A4.374,4.374,0,1,1,26.874,22.5,4.379,4.379,0,0,1,22.5,26.874Z"/>
</svg>
