<svg xmlns="http://www.w3.org/2000/svg" viewBox="0 0 45 45">
  <defs>
    <style>
      .cls-1 {
        fill: #1a3fd8;
      }
    </style>
  </defs>
  <path id="Fill_1" data-name="Fill 1" class="cls-1" d="M22.5,45A22.506,22.506,0,0,1,13.742,1.768,22.506,22.506,0,0,1,31.258,43.232,22.356,22.356,0,0,1,22.5,45Zm0-31.875c-3.367,0-6.48.076-8.327.2-2.184.149-3.338.771-3.984,2.145-.659,1.4-.8,3.636-.812,7.028.015,3.391.153,5.627.809,7.024.647,1.377,1.8,2,3.987,2.149,1.852.126,4.965.2,8.326.2s6.475-.075,8.33-.2c2.184-.149,3.339-.771,3.985-2.145.658-1.4.8-3.635.813-7.028-.016-3.391-.154-5.627-.81-7.024-.647-1.377-1.8-2-3.988-2.149C28.978,13.2,25.864,13.125,22.5,13.125ZM18.75,26.891V18.109l9.22,4.384-9.218,4.4Z"/>
</svg>
