<svg xmlns="http://www.w3.org/2000/svg" viewBox="0 0 45 45"><path data-name="Fill 1" d="M22.5 45A22.492 22.492 0 0 1 6.591 6.591a22.5 22.5 0 1 1 24.667 36.64A22.352 22.352 0 0 1 22.5 45zm0-35.625c-3.536 0-3.966.014-5.412.08-4.775.218-7.415 2.857-7.635 7.633-.063 1.419-.078 1.888-.078 5.412s.015 3.995.078 5.411c.22 4.776 2.86 7.416 7.635 7.636 1.461.063 1.939.078 5.412.078s3.952-.015 5.413-.078c4.777-.221 7.417-2.861 7.633-7.636.063-1.416.078-1.885.078-5.411s-.015-3.993-.078-5.412a8.035 8.035 0 0 0-2.108-5.519 8.054 8.054 0 0 0-5.525-2.114c-1.382-.064-1.844-.08-5.413-.08zm0 23.887c-3.479 0-3.9-.013-5.3-.076a5.717 5.717 0 0 1-3.967-1.431 5.744 5.744 0 0 1-1.414-3.95c-.063-1.409-.076-1.828-.076-5.3s.013-3.9.076-5.3a5.74 5.74 0 0 1 1.416-3.954 5.723 5.723 0 0 1 3.965-1.435c1.374-.062 1.788-.075 5.3-.075 3.459 0 3.89.009 5.3.075a5.72 5.72 0 0 1 3.963 1.428 5.743 5.743 0 0 1 1.423 3.956c.062 1.374.075 1.788.075 5.3s-.013 3.93-.075 5.3a5.747 5.747 0 0 1-1.417 3.953 5.713 5.713 0 0 1-3.969 1.433c-1.363.063-1.775.076-5.3.076zm0-17.5a6.74 6.74 0 1 0 6.741 6.738 6.748 6.748 0 0 0-6.741-6.739zm7.007-1.841a1.575 1.575 0 1 0 1.574 1.579 1.577 1.577 0 0 0-1.574-1.58zM22.5 26.874a4.374 4.374 0 1 1 4.374-4.374 4.379 4.379 0 0 1-4.374 4.374z" fill="currentColor"/></svg>