<svg xmlns="http://www.w3.org/2000/svg" viewBox="0 0 45 45"><path data-name="Fill 1" d="M22.5 45a22.506 22.506 0 0 1-8.758-43.232 22.506 22.506 0 0 1 17.516 41.464A22.356 22.356 0 0 1 22.5 45zm-1.875-26.25V30h3.749v-5.364c0-1.664.975-2.534 1.939-2.534.9 0 1.815.784 1.815 2.534V30h3.747v-6.3a5.565 5.565 0 0 0-1.214-3.813 3.581 3.581 0 0 0-2.685-1.158 4.16 4.16 0 0 0-3.6 2.069V18.75zm-5.625 0V30h3.748V18.75zm1.875-5.829A2.079 2.079 0 1 0 18.938 15a2.074 2.074 0 0 0-2.063-2.08z" fill="currentColor"/></svg>