<svg xmlns="http://www.w3.org/2000/svg" viewBox="0 0 1004.84 175.43"><defs><style>.cls-1{fill:#1a3fd8;}.cls-2{fill:#ff5e56;}.cls-3{fill:#587ced;}</style></defs><title>WiedzaBabel-logo</title><g id="Layer_1" data-name="Layer 1"><path class="cls-1" d="M155.94,80.77l-34.79,8.79-8.31,14L98.78,95.22.88,120A1.17,1.17,0,0,0,0,121.11v43.08a1.17,1.17,0,0,0,1.17,1.17H51.29l10.08,10.07,10.07-10.07h84.78a1.18,1.18,0,0,0,1.18-1.17V81.9A1.17,1.17,0,0,0,155.94,80.77Z"/><path class="cls-2" d="M21.13,104.69,98.55,85l12.24,7.28,7.28-12.24,18.77-4.76a1.18,1.18,0,0,0,.88-1.14V53.61a1.17,1.17,0,0,0-1.17-1.17H72.77L61.37,63.85,50,52.44H20.85a1.18,1.18,0,0,0-1.18,1.17v49.94A1.18,1.18,0,0,0,21.13,104.69Z"/><path class="cls-3" d="M40.52,42.25H51.3L61.37,52.33,71.44,42.25h45.44a1.17,1.17,0,0,0,1.17-1.17V1.17A1.17,1.17,0,0,0,116.59,0L40.23,19.37a1.17,1.17,0,0,0-.88,1.13V41.08A1.17,1.17,0,0,0,40.52,42.25Z"/><path class="cls-1" d="M321.68,48.46l-18.79,78.6H279.32L266.76,74.48l-12.67,52.58H230.52l-18.79-78.6h20.68l10.11,56.92,13.79-56.92H277.1l13.78,56.92,10.23-56.92Z"/><path class="cls-1" d="M350.7,48.46v78.6h-19V48.46Z"/><path class="cls-1" d="M382.82,63.58V80h26.57V94.38H382.82v17.45h29.91v15.23H363.81V48.46h48.92V63.58Z"/><path class="cls-1" d="M489.27,108.11a34.72,34.72,0,0,1-14.23,14q-9.29,5-21.84,5H423.51V48.46H453.2q12.66,0,21.9,4.89a34.13,34.13,0,0,1,14.17,13.79,41.36,41.36,0,0,1,5,20.45A41.71,41.71,0,0,1,489.27,108.11Zm-20.45-4Q475,98.27,475,87.59T468.82,71q-6.18-5.9-17.29-5.89h-9v44.91h9Q462.65,110.05,468.82,104.16Z"/><path class="cls-1" d="M524.68,111.72h34.69v15.34H503.56V112.61l34.13-48.92H504V48.46h55.14V62.91Z"/><path class="cls-1" d="M619.73,112.72H590.27l-4.89,14.34h-20l28.79-78h21.9l28.8,78H624.62Zm-4.89-14.45-9.78-28.91-9.9,28.91Z"/><path class="cls-1" d="M732.85,93.49A18.85,18.85,0,0,1,737,105.6q0,10.13-6.72,15.79T711,127.06H674.43V48.46h35.69q12,0,18.56,5.23t6.56,14.89a18.34,18.34,0,0,1-3.78,11.84,17.41,17.41,0,0,1-9.89,6.17A19.65,19.65,0,0,1,732.85,93.49Zm-39.41-12.9h12.45q9.9,0,9.9-8.45t-10.12-8.45H693.44Zm24.13,22.35a8.29,8.29,0,0,0-2.78-6.62q-2.79-2.38-7.9-2.39H693.44v17.68H707Q717.56,111.61,717.57,102.94Z"/><path class="cls-1" d="M795.72,112.72H766.26l-4.89,14.34h-20l28.79-78h21.9l28.8,78H800.61Zm-4.89-14.45-9.78-28.91-9.9,28.91Z"/><path class="cls-1" d="M886.61,93.49a18.84,18.84,0,0,1,4.16,12.11q0,10.13-6.72,15.79t-19.29,5.67H828.18V48.46h35.69q12,0,18.57,5.23T889,68.58a18.4,18.4,0,0,1-3.78,11.84,17.4,17.4,0,0,1-9.9,6.17A19.68,19.68,0,0,1,886.61,93.49Zm-39.42-12.9h12.46q9.89,0,9.89-8.45t-10.12-8.45H847.19Zm24.13,22.35a8.29,8.29,0,0,0-2.78-6.62c-1.85-1.59-4.49-2.39-7.89-2.39H847.19v17.68h13.57Q871.32,111.61,871.32,102.94Z"/><path class="cls-1" d="M919.79,63.58V80h26.57V94.38H919.79v17.45H949.7v15.23H900.78V48.46H949.7V63.58Z"/><path class="cls-1" d="M979.49,112.5h25.35v14.56H960.48V48.46h19Z"/></g></svg>