<svg xmlns="http://www.w3.org/2000/svg" xmlns:xlink="http://www.w3.org/1999/xlink" viewBox="0 0 285 50"><defs><style>.a{fill:none;}.b{clip-path:url(#a);}.c{fill:#fff;}.d{clip-path:url(#b);}.e{clip-path:url(#c);}</style><clipPath id="a"><path class="a" d="M0,0H44.828V26.915H0Z" transform="translate(0 0.085)"/></clipPath><clipPath id="b"><path class="a" d="M0,0H22.626V14.809H0Z" transform="translate(0.1 0.162)"/></clipPath><clipPath id="c"><path class="a" d="M0,50H285V0H0Z"/></clipPath></defs><g transform="translate(0 23)"><path class="a" d="M0,0H44.828V26.915H0Z" transform="translate(0 0.085)"/><g class="b"><path class="c" d="M44.412.01l-9.907,2.5L32.137,6.491l-4-2.373L.251,11.154A.333.333,0,0,0,0,11.477V23.719a.333.333,0,0,0,.333.333H14.609l2.869,2.863,2.868-2.863H44.494a.333.333,0,0,0,.334-.333V.333A.333.333,0,0,0,44.412.01" transform="translate(0 0.085)"/></g></g><path class="c" d="M.408,14.989,22.05,9.348l3.421,2.089,2.036-3.512,5.246-1.368A.334.334,0,0,0,33,6.232V.336A.332.332,0,0,0,32.673,0H14.844L11.655,3.273,8.466,0H.328A.332.332,0,0,0,0,.336V14.664a.33.33,0,0,0,.408.326" transform="translate(6 15)"/><g transform="translate(11)"><path class="a" d="M0,0H22.626V14.809H0Z" transform="translate(0.1 0.162)"/><g class="d"><path class="c" d="M.337,11.959h3.1l2.9,2.85,2.9-2.85H22.289a.334.334,0,0,0,.337-.331V.332A.335.335,0,0,0,22.206.01L.254,5.482A.333.333,0,0,0,0,5.8v5.824a.334.334,0,0,0,.337.331" transform="translate(0.1 0.162)"/></g></g><path class="c" d="M31,0,25.7,22H19.058L15.516,7.282,11.942,22H5.3L0,0H5.83L8.683,15.932,12.569,0h5.862l3.887,15.932L25.2,0Z" transform="translate(60 14)"/><path class="a" d="M0,50H285V0H0Z"/><g class="e"><path class="c" d="M0,22H5V0H0Z" transform="translate(94 14)"/><path class="c" d="M5.441,4.232V8.838h7.6v4.014h-7.6v4.886H14V22H0V0H14V4.232Z" transform="translate(103 14)"/><path class="c" d="M8.4,22H0V0H8.4a13.227,13.227,0,0,1,6.195,1.369A9.651,9.651,0,0,1,18.6,5.228,11.531,11.531,0,0,1,20,10.953a11.618,11.618,0,0,1-1.4,5.741A9.8,9.8,0,0,1,14.576,20.6,13.01,13.01,0,0,1,8.4,22ZM5.378,4.667V17.239H7.924a6.869,6.869,0,0,0,4.89-1.649,6.1,6.1,0,0,0,1.746-4.637,6.1,6.1,0,0,0-1.746-4.636,6.868,6.868,0,0,0-4.89-1.65Z" transform="translate(120 14)"/><path class="c" d="M6.056,17.706H16V22H0V17.955L9.785,4.263H.127V0H15.936V4.045Z" transform="translate(143 14)"/><path class="c" d="M5.789,22H0L8.331,0h6.337L23,22H17.145L15.73,17.958H7.205L5.79,22ZM11.484,5.735,8.621,13.883h5.693Z" transform="translate(160 14)"/><path class="c" d="M10.518,22H0V0H10.263A8.589,8.589,0,0,1,15.6,1.462a4.986,4.986,0,0,1,1.886,4.17A5.067,5.067,0,0,1,16.4,8.946a5.052,5.052,0,0,1-2.846,1.727A5.712,5.712,0,0,1,16.8,12.6,5.217,5.217,0,0,1,18,15.994a5.421,5.421,0,0,1-1.934,4.419A8.579,8.579,0,0,1,10.518,22ZM5.468,12.727v4.948h3.9c2.015,0,3.037-.817,3.037-2.427a2.3,2.3,0,0,0-.8-1.852,3.461,3.461,0,0,0-2.27-.669Zm0-8.464v4.73h3.58c1.888,0,2.846-.8,2.846-2.365s-.979-2.365-2.91-2.365Z" transform="translate(191 14)"/><path class="c" d="M5.789,22H0L8.331,0h6.337L23,22H17.145L15.73,17.958H7.205L5.79,22ZM11.484,5.735,8.621,13.883h5.693Z" transform="translate(210 14)"/><path class="c" d="M10.518,22H0V0H10.263A8.589,8.589,0,0,1,15.6,1.462a4.986,4.986,0,0,1,1.886,4.17A5.067,5.067,0,0,1,16.4,8.946a5.052,5.052,0,0,1-2.846,1.727A5.712,5.712,0,0,1,16.8,12.6,5.217,5.217,0,0,1,18,15.994a5.421,5.421,0,0,1-1.934,4.419A8.579,8.579,0,0,1,10.518,22ZM5.468,12.727v4.948h3.9c2.015,0,3.037-.817,3.037-2.427a2.3,2.3,0,0,0-.8-1.852,3.461,3.461,0,0,0-2.27-.669Zm0-8.464v4.73h3.58c1.888,0,2.846-.8,2.846-2.365s-.979-2.365-2.91-2.365Z" transform="translate(235 14)"/><path class="c" d="M5.441,4.232V8.838h7.6v4.014h-7.6v4.886H14V22H0V0H14V4.232Z" transform="translate(255 14)"/><path class="c" d="M5.571,17.924H13V22H0V0H5.571Z" transform="translate(272 14)"/></g></svg>